<svg xmlns="http://www.w3.org/2000/svg" width="64" height="64" viewBox="0 0 64 64" fill="none">
    <g clip-path="url(#clip0_1717_2)">
        <path d="M32 0C14.4238 0 0 14.4238 0 32C0 46.9985 10.5244 60.623 24.5 64V53.4131C23.1152 53.7163 21.8408 53.7251 20.4312 53.3096C18.54 52.7515 17.0034 51.4917 15.8628 49.5708C15.1357 48.3442 13.8472 47.0142 12.5029 47.1118L12.1733 43.3765C15.0801 43.1274 17.5947 45.1475 19.0874 47.6553C19.7505 48.7705 20.5137 49.4243 21.4932 49.7134C22.4399 49.9922 23.4565 49.8584 24.6411 49.4399C24.9385 47.0684 26.0249 46.1807 26.8457 44.9307V44.9287C18.5107 43.6855 15.189 39.2637 13.8706 35.7734C12.1235 31.1392 13.061 25.3496 16.1504 21.6909C16.2104 21.6196 16.3188 21.4331 16.2769 21.3027C14.8604 17.0239 16.5864 13.4844 16.6499 13.1089C18.2847 13.5923 18.5503 12.6226 23.751 15.7822L24.6499 16.3223C25.0259 16.5464 24.9077 16.4185 25.2837 16.3901C27.4551 15.8003 29.7441 15.4746 31.9995 15.4453C34.272 15.4746 36.5464 15.8003 38.8076 16.4141L39.0986 16.4434C39.0732 16.4395 39.1777 16.4248 39.353 16.3203C45.8496 12.3853 45.6162 13.6714 47.3584 13.105C47.4214 13.481 49.1245 17.0781 47.7231 21.3027C47.5342 21.8848 53.3555 27.2153 50.1289 35.772C48.8105 39.2637 45.4893 43.6855 37.1543 44.9287V44.9307C38.2227 46.5591 39.5063 47.4253 39.4995 50.7847V64C53.4756 60.623 63.9995 46.9985 63.9995 32C64 14.4238 49.5762 0 32 0V0Z" fill="white"/>
    </g>
    <defs>
        <clipPath id="clip0_1717_2">
            <rect width="64" height="64" fill="white"/>
        </clipPath>
    </defs>
</svg>