<svg xmlns="http://www.w3.org/2000/svg" width="64" height="64" viewBox="0 0 64 64" fill="none">
    <g clip-path="url(#clip0_1717_5)">
        <path d="M32 0C23.5131 0 15.3737 3.37142 9.37258 9.37258C3.37142 15.3737 0 23.5131 0 32C0 40.4869 3.37142 48.6263 9.37258 54.6274C15.3737 60.6286 23.5131 64 32 64C40.4869 64 48.6263 60.6286 54.6274 54.6274C60.6286 48.6263 64 40.4869 64 32C64 23.5131 60.6286 15.3737 54.6274 9.37258C48.6263 3.37142 40.4869 0 32 0V0ZM27.8436 44.5527C25.5418 46.5091 21.9273 46.1236 19.8655 43.9164C17.7418 41.6473 17.5818 38.0982 19.68 35.8655C22.0727 33.32 24.5964 30.8655 27.1018 28.4145C28.0045 27.5589 29.1772 27.0445 30.4182 26.96C31.3013 26.8629 32.1949 26.9633 33.0345 27.2538C33.874 27.5444 34.6385 28.0178 35.2727 28.64L32.6945 31.2218C32.0255 30.7309 31.2618 30.3745 30.3891 30.7236C29.9723 30.8915 29.592 31.1385 29.2691 31.4509C27.063 33.6327 24.8715 35.8145 22.6945 37.9964C21.6655 39.0327 21.6036 40.4291 22.56 41.4036C23.5164 42.3782 24.9345 42.3782 26.0073 41.3455C26.5273 40.8509 27.0255 40.3309 27.5345 39.8255C29.0218 38.3491 31.0036 38.4836 32.2218 40.04C30.7527 41.5636 29.4255 43.2073 27.8436 44.5527V44.5527ZM44.2909 28.1891C41.903 30.7297 39.44 33.1927 36.9018 35.5782C35.7909 36.5887 34.3346 37.1344 32.8332 37.1026C31.3318 37.0708 29.8998 36.464 28.8327 35.4073L31.3782 32.8327C31.9636 33.2509 32.6982 33.6145 33.56 33.2909C33.9622 33.1513 34.3328 32.9338 34.6509 32.6509C36.9006 30.4352 39.1358 28.2048 41.3564 25.96C41.5937 25.7464 41.7844 25.4861 41.9163 25.1953C42.0482 24.9045 42.1186 24.5896 42.1231 24.2703C42.1275 23.9511 42.0659 23.6343 41.9421 23.34C41.8183 23.0457 41.635 22.7801 41.4036 22.56C40.4473 21.6182 39.0691 21.6364 38.0436 22.6145C37.5236 23.1091 37.0255 23.6255 36.5164 24.1345C34.9964 25.6509 33.0255 25.5345 31.6364 23.7709C33.1418 22.3164 34.5455 20.7273 36.1855 19.4073C38.5709 17.4727 42.1164 17.8945 44.1855 20.1673C46.2545 22.44 46.3855 25.96 44.2909 28.1818V28.1891Z" fill="white"/>
    </g>
    <defs>
        <clipPath id="clip0_1717_5">
            <rect width="64" height="64" fill="white"/>
        </clipPath>
    </defs>
</svg>